<mxfile host="app.diagrams.net" agent="Mozilla/5.0 (X11; Ubuntu; Linux x86_64; rv:139.0) Gecko/20100101 Firefox/139.0" version="27.1.6">
  <diagram name="Page-1" id="POaLV1qd_8ivgcaJ0k6t">
    <mxGraphModel dx="1356" dy="721" grid="1" gridSize="10" guides="1" tooltips="1" connect="1" arrows="1" fold="1" page="1" pageScale="1" pageWidth="850" pageHeight="1100" math="0" shadow="0">
      <root>
        <mxCell id="0" />
        <mxCell id="1" parent="0" />
        <mxCell id="lDjh93la92TDXTI0dgt4-91" value="" style="rounded=1;whiteSpace=wrap;html=1;strokeColor=none;strokeWidth=3;align=center;verticalAlign=middle;fontFamily=Helvetica;fontSize=12;fontColor=default;fillColor=#142037;" vertex="1" parent="1">
          <mxGeometry x="240" y="670" width="1250" height="610" as="geometry" />
        </mxCell>
        <mxCell id="lDjh93la92TDXTI0dgt4-93" style="edgeStyle=orthogonalEdgeStyle;rounded=0;orthogonalLoop=1;jettySize=auto;html=1;exitX=0.5;exitY=1;exitDx=0;exitDy=0;" edge="1" parent="1">
          <mxGeometry relative="1" as="geometry">
            <mxPoint x="530" y="1070" as="sourcePoint" />
            <mxPoint x="530" y="1070" as="targetPoint" />
          </mxGeometry>
        </mxCell>
        <mxCell id="lDjh93la92TDXTI0dgt4-97" value="&lt;div&gt;&lt;font style=&quot;font-size: 23px;&quot;&gt;DOCUMENTS&lt;/font&gt;&lt;/div&gt;&lt;div&gt;&lt;font style=&quot;font-size: 23px;&quot;&gt;&lt;u&gt;&lt;br&gt;&lt;/u&gt;&lt;/font&gt;&lt;/div&gt;&lt;div&gt;&lt;table&gt;&lt;tbody&gt;&lt;tr align=&quot;left&quot;&gt;&lt;td&gt;&lt;font&gt;TEXT_DOC_ID&lt;/font&gt;&lt;/td&gt;&lt;/tr&gt;&lt;tr align=&quot;left&quot;&gt;&lt;td&gt;&lt;font&gt;&lt;span&gt;TEXT_CHAR_BEGIN&lt;/span&gt;&lt;/font&gt;&lt;/td&gt;&lt;/tr&gt;&lt;tr align=&quot;left&quot;&gt;&lt;td&gt;&lt;font&gt;TEXT_CHAR_END&lt;/font&gt;&lt;/td&gt;&lt;/tr&gt;&lt;tr align=&quot;left&quot;&gt;&lt;td&gt;&lt;font&gt;TEXT&lt;/font&gt;&lt;/td&gt;&lt;/tr&gt;&lt;/tbody&gt;&lt;/table&gt;&lt;br&gt;&lt;/div&gt;" style="rounded=1;whiteSpace=wrap;html=1;strokeColor=#22D234;strokeWidth=3;align=center;verticalAlign=middle;fontFamily=Helvetica;fontSize=12;fontColor=default;labelBackgroundColor=none;fillColor=#A2D2A4;" vertex="1" parent="1">
          <mxGeometry x="760" y="720" width="200" height="170" as="geometry" />
        </mxCell>
        <mxCell id="lDjh93la92TDXTI0dgt4-98" value="&lt;div&gt;&lt;font style=&quot;font-size: 23px;&quot;&gt;&lt;font&gt;NAMED_ENTITY_VIEW&lt;/font&gt;&lt;/font&gt;&lt;/div&gt;&lt;div&gt;&lt;br&gt;&lt;table&gt;&lt;tbody&gt;&lt;tr&gt;&lt;td align=&quot;left&quot;&gt;&lt;font&gt;TEXT_DOC_ID&lt;/font&gt;&lt;/td&gt;            &lt;td&gt;&lt;br&gt;&lt;/td&gt;            &lt;td&gt;&lt;br&gt;&lt;/td&gt;            &lt;td&gt;&lt;br&gt;&lt;/td&gt;            &lt;td&gt;&lt;br&gt;&lt;/td&gt;            &lt;td&gt;&lt;br&gt;&lt;/td&gt;        &lt;/tr&gt;        &lt;tr&gt;            &lt;td align=&quot;left&quot;&gt;&lt;font&gt;TEXT_CHAR_BEGIN&lt;/font&gt;&lt;/td&gt;            &lt;td&gt;&lt;br&gt;&lt;/td&gt;            &lt;td&gt;&lt;br&gt;&lt;/td&gt;            &lt;td&gt;&lt;br&gt;&lt;/td&gt;            &lt;td&gt;&lt;br&gt;&lt;/td&gt;            &lt;td&gt;&lt;br&gt;&lt;/td&gt;        &lt;/tr&gt;        &lt;tr&gt;            &lt;td align=&quot;left&quot;&gt;&lt;font&gt;TEXT_CHAR_END&lt;/font&gt;&lt;/td&gt;            &lt;td&gt;&lt;br&gt;&lt;/td&gt;            &lt;td&gt;&lt;br&gt;&lt;/td&gt;            &lt;td&gt;&lt;br&gt;&lt;/td&gt;            &lt;td&gt;&lt;br&gt;&lt;/td&gt;            &lt;td&gt;&lt;br&gt;&lt;/td&gt;        &lt;/tr&gt;        &lt;tr&gt;            &lt;td align=&quot;left&quot;&gt;&lt;font&gt;ENTITY_TYPE&lt;/font&gt;&lt;/td&gt;            &lt;td&gt;&lt;br&gt;&lt;/td&gt;            &lt;td&gt;&lt;br&gt;&lt;/td&gt;            &lt;td&gt;&lt;br&gt;&lt;/td&gt;            &lt;td&gt;&lt;br&gt;&lt;/td&gt;            &lt;td&gt;&lt;br&gt;&lt;/td&gt;        &lt;/tr&gt;        &lt;tr&gt;            &lt;td align=&quot;left&quot;&gt;&lt;font&gt;ENTITY_SCORE&lt;/font&gt;&lt;/td&gt;            &lt;td&gt;&lt;br&gt;&lt;/td&gt;            &lt;td&gt;&lt;br&gt;&lt;/td&gt;            &lt;td&gt;&lt;br&gt;&lt;/td&gt;            &lt;td&gt;&lt;br&gt;&lt;/td&gt;            &lt;td&gt;&lt;br&gt;&lt;/td&gt;        &lt;/tr&gt;        &lt;tr&gt;            &lt;td align=&quot;left&quot;&gt;&lt;font&gt;ENTITY&lt;/font&gt;&lt;/td&gt;            &lt;td&gt;&lt;br&gt;&lt;/td&gt;            &lt;td&gt;&lt;br&gt;&lt;/td&gt;            &lt;td&gt;&lt;br&gt;&lt;/td&gt;            &lt;td&gt;&lt;br&gt;&lt;/td&gt;            &lt;td&gt;&lt;br&gt;&lt;/td&gt;        &lt;/tr&gt;        &lt;tr&gt;            &lt;td align=&quot;left&quot;&gt;&lt;font&gt;ENTITY_DOC_ID&lt;/font&gt;&lt;/td&gt;            &lt;td&gt;&lt;br&gt;&lt;/td&gt;            &lt;td&gt;&lt;br&gt;&lt;/td&gt;            &lt;td&gt;&lt;br&gt;&lt;/td&gt;            &lt;td&gt;&lt;br&gt;&lt;/td&gt;            &lt;td&gt;&lt;br&gt;&lt;/td&gt;        &lt;/tr&gt;        &lt;tr&gt;            &lt;td align=&quot;left&quot;&gt;&lt;font&gt;ENTITY_CHAR_BEGIN&lt;/font&gt;&lt;/td&gt;            &lt;td&gt;&lt;br&gt;&lt;/td&gt;            &lt;td&gt;&lt;br&gt;&lt;/td&gt;            &lt;td&gt;&lt;br&gt;&lt;/td&gt;            &lt;td&gt;&lt;br&gt;&lt;/td&gt;            &lt;td&gt;&lt;br&gt;&lt;/td&gt;        &lt;/tr&gt;        &lt;tr&gt;            &lt;td align=&quot;left&quot;&gt;&lt;font&gt;ENTITY_CHAR_END&lt;/font&gt;&lt;/td&gt;            &lt;td&gt;&lt;br&gt;&lt;/td&gt;            &lt;td&gt;&lt;br&gt;&lt;/td&gt;            &lt;td&gt;&lt;br&gt;&lt;/td&gt;            &lt;td&gt;&lt;br&gt;&lt;/td&gt;            &lt;td&gt;&lt;br&gt;&lt;/td&gt;        &lt;/tr&gt;        &lt;tr&gt;            &lt;td align=&quot;left&quot;&gt;&lt;font&gt;ERROR_MESSAGE&lt;/font&gt;&lt;/td&gt;            &lt;td&gt;&lt;br&gt;&lt;/td&gt;            &lt;td&gt;&lt;br&gt;&lt;/td&gt;            &lt;td&gt;&lt;br&gt;&lt;/td&gt;            &lt;td&gt;&lt;br&gt;&lt;/td&gt;            &lt;td&gt;&lt;br&gt;&lt;/td&gt;        &lt;/tr&gt;        &lt;tr align=&quot;left&quot;&gt;            &lt;td&gt;&lt;font&gt;SETUP&lt;/font&gt;&lt;/td&gt;&lt;/tr&gt;&lt;/tbody&gt;&lt;/table&gt;&lt;br&gt;&lt;/div&gt;" style="rounded=1;whiteSpace=wrap;html=1;strokeColor=#22D234;strokeWidth=3;align=center;verticalAlign=middle;fontFamily=Helvetica;fontSize=12;fontColor=default;labelBackgroundColor=none;fillColor=#A2D2A4;" vertex="1" parent="1">
          <mxGeometry x="760" y="950" width="300" height="290" as="geometry" />
        </mxCell>
        <mxCell id="lDjh93la92TDXTI0dgt4-99" value="&lt;div&gt;&lt;font style=&quot;font-size: 23px;&quot;&gt;KEYWORD_SEARCH_VIEW&lt;/font&gt;&lt;/div&gt;&lt;div&gt;&lt;br&gt;&lt;br&gt;&lt;table&gt;&lt;tbody&gt;&lt;tr&gt;&lt;td align=&quot;left&quot;&gt;&lt;font&gt;TEXT_DOC_ID&lt;/font&gt;&lt;/td&gt;            &lt;td&gt;&lt;br&gt;&lt;/td&gt;            &lt;td&gt;&lt;br&gt;&lt;/td&gt;            &lt;td&gt;&lt;br&gt;&lt;/td&gt;            &lt;td&gt;&lt;br&gt;&lt;/td&gt;            &lt;td&gt;&lt;br&gt;&lt;/td&gt;        &lt;/tr&gt;        &lt;tr&gt;            &lt;td align=&quot;left&quot;&gt;&lt;font&gt;TEXT_CHAR_BEGIN&lt;/font&gt;&lt;/td&gt;            &lt;td&gt;&lt;br&gt;&lt;/td&gt;            &lt;td&gt;&lt;br&gt;&lt;/td&gt;            &lt;td&gt;&lt;br&gt;&lt;/td&gt;            &lt;td&gt;&lt;br&gt;&lt;/td&gt;            &lt;td&gt;&lt;br&gt;&lt;/td&gt;        &lt;/tr&gt;        &lt;tr&gt;            &lt;td align=&quot;left&quot;&gt;&lt;font&gt;TEXT_CHAR_END&lt;/font&gt;&lt;/td&gt;            &lt;td&gt;&lt;br&gt;&lt;/td&gt;            &lt;td&gt;&lt;br&gt;&lt;/td&gt;            &lt;td&gt;&lt;br&gt;&lt;/td&gt;            &lt;td&gt;&lt;br&gt;&lt;/td&gt;            &lt;td&gt;&lt;br&gt;&lt;/td&gt;        &lt;/tr&gt;        &lt;tr&gt;            &lt;td align=&quot;left&quot;&gt;&lt;font&gt;KEYWORD&lt;/font&gt;&lt;/td&gt;            &lt;td&gt;&lt;br&gt;&lt;/td&gt;            &lt;td&gt;&lt;br&gt;&lt;/td&gt;            &lt;td&gt;&lt;br&gt;&lt;/td&gt;            &lt;td&gt;&lt;br&gt;&lt;/td&gt;            &lt;td&gt;&lt;br&gt;&lt;/td&gt;        &lt;/tr&gt;        &lt;tr&gt;            &lt;td align=&quot;left&quot;&gt;&lt;font&gt;KEYWORD_SCORE&lt;/font&gt;&lt;/td&gt;            &lt;td&gt;&lt;br&gt;&lt;/td&gt;            &lt;td&gt;&lt;br&gt;&lt;/td&gt;            &lt;td&gt;&lt;br&gt;&lt;/td&gt;            &lt;td&gt;&lt;br&gt;&lt;/td&gt;            &lt;td&gt;&lt;br&gt;&lt;/td&gt;        &lt;/tr&gt;        &lt;tr&gt;            &lt;td align=&quot;left&quot;&gt;&lt;font&gt;KEYWORD_DOC_ID&lt;/font&gt;&lt;/td&gt;            &lt;td&gt;&lt;br&gt;&lt;/td&gt;            &lt;td&gt;&lt;br&gt;&lt;/td&gt;            &lt;td&gt;&lt;br&gt;&lt;/td&gt;            &lt;td&gt;&lt;br&gt;&lt;/td&gt;            &lt;td&gt;&lt;br&gt;&lt;/td&gt;        &lt;/tr&gt;        &lt;tr&gt;            &lt;td align=&quot;left&quot;&gt;&lt;font&gt;KEYWORD_CHAR_BEGIN&lt;/font&gt;&lt;/td&gt;            &lt;td&gt;&lt;br&gt;&lt;/td&gt;            &lt;td&gt;&lt;br&gt;&lt;/td&gt;            &lt;td&gt;&lt;br&gt;&lt;/td&gt;            &lt;td&gt;&lt;br&gt;&lt;/td&gt;            &lt;td&gt;&lt;br&gt;&lt;/td&gt;        &lt;/tr&gt;        &lt;tr&gt;            &lt;td align=&quot;left&quot;&gt;&lt;font&gt;KEYWORD_CHAR_END&lt;/font&gt;&lt;/td&gt;            &lt;td&gt;&lt;br&gt;&lt;/td&gt;            &lt;td&gt;&lt;br&gt;&lt;/td&gt;            &lt;td&gt;&lt;br&gt;&lt;/td&gt;            &lt;td&gt;&lt;br&gt;&lt;/td&gt;            &lt;td&gt;&lt;br&gt;&lt;/td&gt;        &lt;/tr&gt;        &lt;tr&gt;            &lt;td align=&quot;left&quot;&gt;&lt;font&gt;ERROR_MESSAGE&lt;/font&gt;&lt;/td&gt;            &lt;td&gt;&lt;br&gt;&lt;/td&gt;            &lt;td&gt;&lt;br&gt;&lt;/td&gt;            &lt;td&gt;&lt;br&gt;&lt;/td&gt;            &lt;td&gt;&lt;br&gt;&lt;/td&gt;            &lt;td&gt;&lt;br&gt;&lt;/td&gt;        &lt;/tr&gt;        &lt;tr&gt;            &lt;td align=&quot;left&quot;&gt;&lt;font&gt;SETUP&lt;/font&gt;&lt;/td&gt;&lt;/tr&gt;&lt;/tbody&gt;&lt;/table&gt;&lt;br&gt;&lt;/div&gt;" style="rounded=1;whiteSpace=wrap;html=1;strokeColor=#22D234;strokeWidth=3;align=center;verticalAlign=middle;fontFamily=Helvetica;fontSize=12;fontColor=default;labelBackgroundColor=none;fillColor=#A2D2A4;" vertex="1" parent="1">
          <mxGeometry x="1100" y="950" width="340" height="290" as="geometry" />
        </mxCell>
        <mxCell id="lDjh93la92TDXTI0dgt4-100" value="&lt;div&gt;&lt;font style=&quot;font-size: 23px;&quot;&gt;CUSTOMER_SUPPORT_TICKETS&lt;/font&gt;&lt;br&gt;&lt;br&gt;&lt;br&gt;&lt;table&gt;&lt;tbody&gt;&lt;tr&gt;&lt;td align=&quot;left&quot;&gt;TICKET_ID&lt;/td&gt;            &lt;td align=&quot;left&quot;&gt;&lt;br&gt;&lt;/td&gt;            &lt;td align=&quot;left&quot;&gt;&lt;br&gt;&lt;/td&gt;            &lt;td align=&quot;left&quot;&gt;&lt;br&gt;&lt;/td&gt;            &lt;td&gt;&lt;br&gt;&lt;/td&gt;            &lt;td&gt;&lt;br&gt;&lt;/td&gt;        &lt;/tr&gt;        &lt;tr&gt;            &lt;td align=&quot;left&quot;&gt;CUSTOMER_NAME&lt;/td&gt;            &lt;td align=&quot;left&quot;&gt;&lt;br&gt;&lt;/td&gt;            &lt;td align=&quot;left&quot;&gt;&lt;br&gt;&lt;/td&gt;            &lt;td align=&quot;left&quot;&gt;&lt;br&gt;&lt;/td&gt;            &lt;td&gt;&lt;br&gt;&lt;/td&gt;            &lt;td&gt;&lt;br&gt;&lt;/td&gt;        &lt;/tr&gt;        &lt;tr&gt;            &lt;td align=&quot;left&quot;&gt;CUSTOMER_EMAIL&lt;/td&gt;            &lt;td align=&quot;left&quot;&gt;&lt;br&gt;&lt;/td&gt;            &lt;td align=&quot;left&quot;&gt;&lt;br&gt;&lt;/td&gt;            &lt;td align=&quot;left&quot;&gt;&lt;br&gt;&lt;/td&gt;            &lt;td&gt;&lt;br&gt;&lt;/td&gt;            &lt;td&gt;&lt;br&gt;&lt;/td&gt;        &lt;/tr&gt;        &lt;tr&gt;            &lt;td align=&quot;left&quot;&gt;CUSTOMER_AGE&lt;/td&gt;            &lt;td align=&quot;left&quot;&gt;&lt;br&gt;&lt;/td&gt;            &lt;td align=&quot;left&quot;&gt;&lt;br&gt;&lt;/td&gt;            &lt;td align=&quot;left&quot;&gt;&lt;br&gt;&lt;/td&gt;            &lt;td&gt;&lt;br&gt;&lt;/td&gt;            &lt;td&gt;&lt;br&gt;&lt;/td&gt;        &lt;/tr&gt;        &lt;tr&gt;            &lt;td align=&quot;left&quot;&gt;CUSTOMER_GENDER&lt;/td&gt;            &lt;td align=&quot;left&quot;&gt;&lt;br&gt;&lt;/td&gt;            &lt;td align=&quot;left&quot;&gt;&lt;br&gt;&lt;/td&gt;            &lt;td align=&quot;left&quot;&gt;&lt;br&gt;&lt;/td&gt;            &lt;td&gt;&lt;br&gt;&lt;/td&gt;            &lt;td&gt;&lt;br&gt;&lt;/td&gt;        &lt;/tr&gt;        &lt;tr&gt;            &lt;td align=&quot;left&quot;&gt;PRODUCT_PURCHASED&lt;/td&gt;            &lt;td align=&quot;left&quot;&gt;&lt;br&gt;&lt;/td&gt;            &lt;td align=&quot;left&quot;&gt;&lt;br&gt;&lt;/td&gt;            &lt;td align=&quot;left&quot;&gt;&lt;br&gt;&lt;/td&gt;            &lt;td&gt;&lt;br&gt;&lt;/td&gt;            &lt;td&gt;&lt;br&gt;&lt;/td&gt;        &lt;/tr&gt;        &lt;tr&gt;            &lt;td align=&quot;left&quot;&gt;DATE_OF_PURCHASE&lt;/td&gt;            &lt;td align=&quot;left&quot;&gt;&lt;br&gt;&lt;/td&gt;            &lt;td align=&quot;left&quot;&gt;&lt;br&gt;&lt;/td&gt;            &lt;td align=&quot;left&quot;&gt;&lt;br&gt;&lt;/td&gt;            &lt;td&gt;&lt;br&gt;&lt;/td&gt;            &lt;td&gt;&lt;br&gt;&lt;/td&gt;        &lt;/tr&gt;        &lt;tr&gt;            &lt;td align=&quot;left&quot;&gt;TICKET_TYPE&lt;/td&gt;            &lt;td align=&quot;left&quot;&gt;&lt;br&gt;&lt;/td&gt;            &lt;td align=&quot;left&quot;&gt;&lt;br&gt;&lt;/td&gt;            &lt;td align=&quot;left&quot;&gt;&lt;br&gt;&lt;/td&gt;            &lt;td&gt;&lt;br&gt;&lt;/td&gt;            &lt;td&gt;&lt;br&gt;&lt;/td&gt;        &lt;/tr&gt;        &lt;tr&gt;            &lt;td align=&quot;left&quot;&gt;TICKET_SUBJECT&lt;/td&gt;            &lt;td align=&quot;left&quot;&gt;&lt;br&gt;&lt;/td&gt;            &lt;td align=&quot;left&quot;&gt;&lt;br&gt;&lt;/td&gt;            &lt;td align=&quot;left&quot;&gt;&lt;br&gt;&lt;/td&gt;            &lt;td&gt;&lt;br&gt;&lt;/td&gt;            &lt;td&gt;&lt;br&gt;&lt;/td&gt;        &lt;/tr&gt;        &lt;tr&gt;            &lt;td align=&quot;left&quot;&gt;TICKET_DESCRIPTION&lt;/td&gt;            &lt;td align=&quot;left&quot;&gt;&lt;br&gt;&lt;/td&gt;            &lt;td align=&quot;left&quot;&gt;&lt;br&gt;&lt;/td&gt;            &lt;td align=&quot;left&quot;&gt;&lt;br&gt;&lt;/td&gt;            &lt;td&gt;&lt;br&gt;&lt;/td&gt;            &lt;td&gt;&lt;br&gt;&lt;/td&gt;        &lt;/tr&gt;        &lt;tr&gt;            &lt;td align=&quot;left&quot;&gt;TICKET_STATUS&lt;/td&gt;            &lt;td align=&quot;left&quot;&gt;&lt;br&gt;&lt;/td&gt;            &lt;td align=&quot;left&quot;&gt;&lt;br&gt;&lt;/td&gt;            &lt;td align=&quot;left&quot;&gt;&lt;br&gt;&lt;/td&gt;            &lt;td&gt;&lt;br&gt;&lt;/td&gt;            &lt;td&gt;&lt;br&gt;&lt;/td&gt;        &lt;/tr&gt;        &lt;tr&gt;            &lt;td align=&quot;left&quot;&gt;RESOLUTION&lt;/td&gt;            &lt;td align=&quot;left&quot;&gt;&lt;br&gt;&lt;/td&gt;            &lt;td align=&quot;left&quot;&gt;&lt;br&gt;&lt;/td&gt;            &lt;td align=&quot;left&quot;&gt;&lt;br&gt;&lt;/td&gt;            &lt;td&gt;&lt;br&gt;&lt;/td&gt;            &lt;td&gt;&lt;br&gt;&lt;/td&gt;        &lt;/tr&gt;        &lt;tr&gt;            &lt;td align=&quot;left&quot;&gt;TICKET_PRIORITY&lt;/td&gt;            &lt;td align=&quot;left&quot;&gt;&lt;br&gt;&lt;/td&gt;            &lt;td align=&quot;left&quot;&gt;&lt;br&gt;&lt;/td&gt;            &lt;td align=&quot;left&quot;&gt;&lt;br&gt;&lt;/td&gt;            &lt;td&gt;&lt;br&gt;&lt;/td&gt;            &lt;td&gt;&lt;br&gt;&lt;/td&gt;        &lt;/tr&gt;        &lt;tr&gt;            &lt;td align=&quot;left&quot;&gt;TICKET_CHANNEL&lt;/td&gt;            &lt;td align=&quot;left&quot;&gt;&lt;br&gt;&lt;/td&gt;            &lt;td align=&quot;left&quot;&gt;&lt;br&gt;&lt;/td&gt;            &lt;td align=&quot;left&quot;&gt;&lt;br&gt;&lt;/td&gt;            &lt;td&gt;&lt;br&gt;&lt;/td&gt;            &lt;td&gt;&lt;br&gt;&lt;/td&gt;        &lt;/tr&gt;        &lt;tr&gt;            &lt;td align=&quot;left&quot;&gt;FIRST_RESPONSE_TIME&lt;/td&gt;            &lt;td align=&quot;left&quot;&gt;&lt;br&gt;&lt;/td&gt;            &lt;td align=&quot;left&quot;&gt;&lt;br&gt;&lt;/td&gt;            &lt;td align=&quot;left&quot;&gt;&lt;br&gt;&lt;/td&gt;            &lt;td&gt;&lt;br&gt;&lt;/td&gt;            &lt;td&gt;&lt;br&gt;&lt;/td&gt;        &lt;/tr&gt;        &lt;tr&gt;            &lt;td align=&quot;left&quot;&gt;TIME_TO_RESOLUTION&lt;/td&gt;            &lt;td align=&quot;left&quot;&gt;&lt;br&gt;&lt;/td&gt;            &lt;td align=&quot;left&quot;&gt;&lt;br&gt;&lt;/td&gt;            &lt;td align=&quot;left&quot;&gt;&lt;br&gt;&lt;/td&gt;            &lt;td&gt;&lt;br&gt;&lt;/td&gt;            &lt;td&gt;&lt;br&gt;&lt;/td&gt;        &lt;/tr&gt;        &lt;tr&gt;            &lt;td&gt;CUSTOMER_SATISFACTION_RATING&lt;/td&gt;            &lt;td&gt;&lt;br&gt;&lt;/td&gt;            &lt;td&gt;&lt;br&gt;&lt;/td&gt;            &lt;td&gt;&lt;br&gt;&lt;/td&gt;            &lt;td&gt;&lt;br&gt;&lt;/td&gt;            &lt;td&gt;&lt;br&gt;&lt;/td&gt;&lt;/tr&gt;&lt;/tbody&gt;&lt;/table&gt;&lt;br&gt;&lt;/div&gt;" style="rounded=1;whiteSpace=wrap;html=1;strokeColor=#22D234;strokeWidth=3;align=center;verticalAlign=middle;fontFamily=Helvetica;fontSize=12;fontColor=default;labelBackgroundColor=none;fillColor=#A2D2A4;gradientColor=#617E62;" vertex="1" parent="1">
          <mxGeometry x="290" y="730" width="390" height="430" as="geometry" />
        </mxCell>
        <mxCell id="lDjh93la92TDXTI0dgt4-101" value="&lt;div&gt;&lt;font style=&quot;font-size: 23px;&quot;&gt;MY_VIEW&lt;/font&gt;&lt;br&gt;&lt;br&gt;&lt;br&gt;&lt;table&gt;&lt;tbody&gt;&lt;tr&gt;&lt;td align=&quot;left&quot;&gt;TICKET_ID&lt;/td&gt;            &lt;td align=&quot;left&quot;&gt;&lt;br&gt;&lt;/td&gt;            &lt;td align=&quot;left&quot;&gt;&lt;br&gt;&lt;/td&gt;            &lt;td align=&quot;left&quot;&gt;&lt;br&gt;&lt;/td&gt;            &lt;td&gt;&lt;br&gt;&lt;/td&gt;            &lt;td&gt;&lt;br&gt;&lt;/td&gt;        &lt;/tr&gt;        &lt;tr&gt;            &lt;td align=&quot;left&quot;&gt;CUSTOMER_NAME&lt;/td&gt;            &lt;td align=&quot;left&quot;&gt;&lt;br&gt;&lt;/td&gt;            &lt;td align=&quot;left&quot;&gt;&lt;br&gt;&lt;/td&gt;            &lt;td align=&quot;left&quot;&gt;&lt;br&gt;&lt;/td&gt;            &lt;td&gt;&lt;br&gt;&lt;/td&gt;            &lt;td&gt;&lt;br&gt;&lt;/td&gt;        &lt;/tr&gt;        &lt;tr&gt;            &lt;td align=&quot;left&quot;&gt;CUSTOMER_EMAIL&lt;/td&gt;            &lt;td align=&quot;left&quot;&gt;&lt;br&gt;&lt;/td&gt;            &lt;td align=&quot;left&quot;&gt;&lt;br&gt;&lt;/td&gt;            &lt;td align=&quot;left&quot;&gt;&lt;br&gt;&lt;/td&gt;            &lt;td&gt;&lt;br&gt;&lt;/td&gt;            &lt;td&gt;&lt;br&gt;&lt;/td&gt;        &lt;/tr&gt;        &lt;tr&gt;            &lt;td align=&quot;left&quot;&gt;CUSTOMER_AGE&lt;/td&gt;            &lt;td align=&quot;left&quot;&gt;&lt;br&gt;&lt;/td&gt;            &lt;td align=&quot;left&quot;&gt;&lt;br&gt;&lt;/td&gt;            &lt;td align=&quot;left&quot;&gt;&lt;br&gt;&lt;/td&gt;            &lt;td&gt;&lt;br&gt;&lt;/td&gt;            &lt;td&gt;&lt;br&gt;&lt;/td&gt;        &lt;/tr&gt;        &lt;tr&gt;            &lt;td align=&quot;left&quot;&gt;CUSTOMER_GENDER&lt;/td&gt;            &lt;td align=&quot;left&quot;&gt;&lt;br&gt;&lt;/td&gt;            &lt;td align=&quot;left&quot;&gt;&lt;br&gt;&lt;/td&gt;            &lt;td align=&quot;left&quot;&gt;&lt;br&gt;&lt;/td&gt;            &lt;td&gt;&lt;br&gt;&lt;/td&gt;            &lt;td&gt;&lt;br&gt;&lt;/td&gt;        &lt;/tr&gt;        &lt;tr&gt;            &lt;td align=&quot;left&quot;&gt;PRODUCT_PURCHASED&lt;/td&gt;            &lt;td align=&quot;left&quot;&gt;&lt;br&gt;&lt;/td&gt;            &lt;td align=&quot;left&quot;&gt;&lt;br&gt;&lt;/td&gt;            &lt;td align=&quot;left&quot;&gt;&lt;br&gt;&lt;/td&gt;            &lt;td&gt;&lt;br&gt;&lt;/td&gt;            &lt;td&gt;&lt;br&gt;&lt;/td&gt;        &lt;/tr&gt;        &lt;tr&gt;            &lt;td align=&quot;left&quot;&gt;DATE_OF_PURCHASE&lt;/td&gt;            &lt;td align=&quot;left&quot;&gt;&lt;br&gt;&lt;/td&gt;            &lt;td align=&quot;left&quot;&gt;&lt;br&gt;&lt;/td&gt;            &lt;td align=&quot;left&quot;&gt;&lt;br&gt;&lt;/td&gt;            &lt;td&gt;&lt;br&gt;&lt;/td&gt;            &lt;td&gt;&lt;br&gt;&lt;/td&gt;        &lt;/tr&gt;        &lt;tr&gt;            &lt;td align=&quot;left&quot;&gt;TICKET_TYPE&lt;/td&gt;            &lt;td align=&quot;left&quot;&gt;&lt;br&gt;&lt;/td&gt;            &lt;td align=&quot;left&quot;&gt;&lt;br&gt;&lt;/td&gt;            &lt;td align=&quot;left&quot;&gt;&lt;br&gt;&lt;/td&gt;            &lt;td&gt;&lt;br&gt;&lt;/td&gt;            &lt;td&gt;&lt;br&gt;&lt;/td&gt;        &lt;/tr&gt;        &lt;tr&gt;            &lt;td align=&quot;left&quot;&gt;TICKET_SUBJECT&lt;/td&gt;            &lt;td align=&quot;left&quot;&gt;&lt;br&gt;&lt;/td&gt;            &lt;td align=&quot;left&quot;&gt;&lt;br&gt;&lt;/td&gt;            &lt;td align=&quot;left&quot;&gt;&lt;br&gt;&lt;/td&gt;            &lt;td&gt;&lt;br&gt;&lt;/td&gt;            &lt;td&gt;&lt;br&gt;&lt;/td&gt;        &lt;/tr&gt;        &lt;tr&gt;            &lt;td align=&quot;left&quot;&gt;TICKET_DESCRIPTION&lt;/td&gt;            &lt;td align=&quot;left&quot;&gt;&lt;br&gt;&lt;/td&gt;            &lt;td align=&quot;left&quot;&gt;&lt;br&gt;&lt;/td&gt;            &lt;td align=&quot;left&quot;&gt;&lt;br&gt;&lt;/td&gt;            &lt;td&gt;&lt;br&gt;&lt;/td&gt;            &lt;td&gt;&lt;br&gt;&lt;/td&gt;        &lt;/tr&gt;        &lt;tr&gt;            &lt;td align=&quot;left&quot;&gt;TICKET_STATUS&lt;/td&gt;            &lt;td align=&quot;left&quot;&gt;&lt;br&gt;&lt;/td&gt;            &lt;td align=&quot;left&quot;&gt;&lt;br&gt;&lt;/td&gt;            &lt;td align=&quot;left&quot;&gt;&lt;br&gt;&lt;/td&gt;            &lt;td&gt;&lt;br&gt;&lt;/td&gt;            &lt;td&gt;&lt;br&gt;&lt;/td&gt;        &lt;/tr&gt;        &lt;tr&gt;            &lt;td align=&quot;left&quot;&gt;RESOLUTION&lt;/td&gt;            &lt;td align=&quot;left&quot;&gt;&lt;br&gt;&lt;/td&gt;            &lt;td align=&quot;left&quot;&gt;&lt;br&gt;&lt;/td&gt;            &lt;td align=&quot;left&quot;&gt;&lt;br&gt;&lt;/td&gt;            &lt;td&gt;&lt;br&gt;&lt;/td&gt;            &lt;td&gt;&lt;br&gt;&lt;/td&gt;        &lt;/tr&gt;        &lt;tr&gt;            &lt;td align=&quot;left&quot;&gt;TICKET_PRIORITY&lt;/td&gt;            &lt;td align=&quot;left&quot;&gt;&lt;br&gt;&lt;/td&gt;            &lt;td align=&quot;left&quot;&gt;&lt;br&gt;&lt;/td&gt;            &lt;td align=&quot;left&quot;&gt;&lt;br&gt;&lt;/td&gt;            &lt;td&gt;&lt;br&gt;&lt;/td&gt;            &lt;td&gt;&lt;br&gt;&lt;/td&gt;        &lt;/tr&gt;        &lt;tr&gt;            &lt;td align=&quot;left&quot;&gt;TICKET_CHANNEL&lt;/td&gt;            &lt;td align=&quot;left&quot;&gt;&lt;br&gt;&lt;/td&gt;            &lt;td align=&quot;left&quot;&gt;&lt;br&gt;&lt;/td&gt;            &lt;td align=&quot;left&quot;&gt;&lt;br&gt;&lt;/td&gt;            &lt;td&gt;&lt;br&gt;&lt;/td&gt;            &lt;td&gt;&lt;br&gt;&lt;/td&gt;        &lt;/tr&gt;        &lt;tr&gt;            &lt;td align=&quot;left&quot;&gt;FIRST_RESPONSE_TIME&lt;/td&gt;            &lt;td align=&quot;left&quot;&gt;&lt;br&gt;&lt;/td&gt;            &lt;td align=&quot;left&quot;&gt;&lt;br&gt;&lt;/td&gt;            &lt;td align=&quot;left&quot;&gt;&lt;br&gt;&lt;/td&gt;            &lt;td&gt;&lt;br&gt;&lt;/td&gt;            &lt;td&gt;&lt;br&gt;&lt;/td&gt;        &lt;/tr&gt;        &lt;tr&gt;            &lt;td align=&quot;left&quot;&gt;TIME_TO_RESOLUTION&lt;/td&gt;            &lt;td align=&quot;left&quot;&gt;&lt;br&gt;&lt;/td&gt;            &lt;td align=&quot;left&quot;&gt;&lt;br&gt;&lt;/td&gt;            &lt;td align=&quot;left&quot;&gt;&lt;br&gt;&lt;/td&gt;            &lt;td&gt;&lt;br&gt;&lt;/td&gt;            &lt;td&gt;&lt;br&gt;&lt;/td&gt;        &lt;/tr&gt;        &lt;tr&gt;            &lt;td&gt;CUSTOMER_SATISFACTION_RATING&lt;/td&gt;            &lt;td&gt;&lt;br&gt;&lt;/td&gt;            &lt;td&gt;&lt;br&gt;&lt;/td&gt;            &lt;td&gt;&lt;br&gt;&lt;/td&gt;            &lt;td&gt;&lt;br&gt;&lt;/td&gt;            &lt;td&gt;&lt;br&gt;&lt;/td&gt;&lt;/tr&gt;&lt;/tbody&gt;&lt;/table&gt;&lt;br&gt;&lt;/div&gt;" style="rounded=1;whiteSpace=wrap;html=1;strokeColor=#22D234;strokeWidth=3;align=center;verticalAlign=middle;fontFamily=Helvetica;fontSize=12;fontColor=default;labelBackgroundColor=none;fillColor=#A2D2A4;" vertex="1" parent="1">
          <mxGeometry x="350" y="780" width="390" height="430" as="geometry" />
        </mxCell>
        <mxCell id="lDjh93la92TDXTI0dgt4-102" value="&lt;div&gt;&lt;font style=&quot;font-size: 23px;&quot;&gt;&lt;font&gt;TOPIC_CLASSIFIER_VIEW&lt;/font&gt;&lt;/font&gt;&lt;/div&gt;&lt;div&gt;&lt;br&gt;&lt;table&gt;&lt;tbody&gt;&lt;tr align=&quot;left&quot;&gt;&lt;td&gt;TEXT_DOC_ID&lt;/td&gt;&lt;/tr&gt;&lt;tr align=&quot;left&quot;&gt;&lt;td&gt;TEXT_CHAR_BEGIN&lt;/td&gt;&lt;/tr&gt;&lt;tr align=&quot;left&quot;&gt;&lt;td&gt;TEXT_CHAR_END&lt;/td&gt;&lt;/tr&gt;&lt;tr align=&quot;left&quot;&gt;&lt;td&gt;TOPIC&lt;/td&gt;&lt;/tr&gt;&lt;tr align=&quot;left&quot;&gt;&lt;td&gt;TOPIC_SCORE&lt;/td&gt;&lt;/tr&gt;&lt;tr align=&quot;left&quot;&gt;&lt;td&gt;TOPIC_RANK&lt;/td&gt;&lt;/tr&gt;&lt;tr align=&quot;left&quot;&gt;&lt;td&gt;ERROR_MESSAGE&lt;/td&gt;&lt;/tr&gt;&lt;tr align=&quot;left&quot;&gt;&lt;td&gt;SETUP&lt;/td&gt;&lt;/tr&gt;&lt;/tbody&gt;&lt;/table&gt;&lt;br&gt;&lt;/div&gt;" style="rounded=1;whiteSpace=wrap;html=1;strokeColor=#22D234;strokeWidth=3;align=center;verticalAlign=middle;fontFamily=Helvetica;fontSize=12;fontColor=default;labelBackgroundColor=none;fillColor=#A2D2A4;" vertex="1" parent="1">
          <mxGeometry x="1100" y="700" width="340" height="230" as="geometry" />
        </mxCell>
        <mxCell id="lDjh93la92TDXTI0dgt4-103" style="edgeStyle=orthogonalEdgeStyle;rounded=0;orthogonalLoop=1;jettySize=auto;html=1;exitX=1;exitY=0.5;exitDx=0;exitDy=0;entryX=0;entryY=0.5;entryDx=0;entryDy=0;fontFamily=Helvetica;fontSize=12;fontColor=default;labelBackgroundColor=none;strokeColor=#B3B3B3;strokeWidth=4;" edge="1" parent="1" source="lDjh93la92TDXTI0dgt4-106" target="lDjh93la92TDXTI0dgt4-110">
          <mxGeometry relative="1" as="geometry">
            <Array as="points">
              <mxPoint x="1080" y="810" />
              <mxPoint x="1080" y="780" />
            </Array>
          </mxGeometry>
        </mxCell>
        <mxCell id="lDjh93la92TDXTI0dgt4-104" style="edgeStyle=orthogonalEdgeStyle;rounded=0;orthogonalLoop=1;jettySize=auto;html=1;exitX=1;exitY=0.5;exitDx=0;exitDy=0;entryX=0;entryY=0.5;entryDx=0;entryDy=0;fontFamily=Helvetica;fontSize=12;fontColor=default;labelBackgroundColor=none;strokeWidth=4;strokeColor=#B3B3B3;" edge="1" parent="1" source="lDjh93la92TDXTI0dgt4-106" target="lDjh93la92TDXTI0dgt4-109">
          <mxGeometry relative="1" as="geometry">
            <Array as="points">
              <mxPoint x="1080" y="810" />
              <mxPoint x="1080" y="1050" />
            </Array>
          </mxGeometry>
        </mxCell>
        <mxCell id="lDjh93la92TDXTI0dgt4-105" style="edgeStyle=orthogonalEdgeStyle;rounded=0;orthogonalLoop=1;jettySize=auto;html=1;exitX=1;exitY=0.5;exitDx=0;exitDy=0;entryX=1;entryY=0.5;entryDx=0;entryDy=0;fontFamily=Helvetica;fontSize=12;fontColor=default;labelBackgroundColor=none;strokeWidth=4;strokeColor=#B3B3B3;" edge="1" parent="1" source="lDjh93la92TDXTI0dgt4-106" target="lDjh93la92TDXTI0dgt4-108">
          <mxGeometry relative="1" as="geometry">
            <Array as="points">
              <mxPoint x="1080" y="810" />
              <mxPoint x="1080" y="1030" />
            </Array>
          </mxGeometry>
        </mxCell>
        <mxCell id="lDjh93la92TDXTI0dgt4-106" value="" style="rounded=1;whiteSpace=wrap;html=1;strokeColor=#22D234;strokeWidth=3;align=center;verticalAlign=middle;fontFamily=Helvetica;fontSize=12;fontColor=default;labelBackgroundColor=none;fillColor=none;" vertex="1" parent="1">
          <mxGeometry x="770" y="780" width="140" height="60" as="geometry" />
        </mxCell>
        <mxCell id="lDjh93la92TDXTI0dgt4-107" value="&lt;font style=&quot;font-size: 14px;&quot;&gt;&lt;span style=&quot;color: rgb(179, 179, 179);&quot;&gt;Document Span&lt;/span&gt;&lt;/font&gt;" style="text;html=1;align=center;verticalAlign=middle;whiteSpace=wrap;rounded=0;fontFamily=Helvetica;fontSize=12;fontColor=default;labelBackgroundColor=none;" vertex="1" parent="1">
          <mxGeometry x="950" y="800" width="140" height="50" as="geometry" />
        </mxCell>
        <mxCell id="lDjh93la92TDXTI0dgt4-108" value="" style="rounded=1;whiteSpace=wrap;html=1;strokeColor=#22D234;strokeWidth=3;align=center;verticalAlign=middle;fontFamily=Helvetica;fontSize=12;fontColor=default;labelBackgroundColor=none;fillColor=none;" vertex="1" parent="1">
          <mxGeometry x="770" y="1000" width="140" height="60" as="geometry" />
        </mxCell>
        <mxCell id="lDjh93la92TDXTI0dgt4-109" value="" style="rounded=1;whiteSpace=wrap;html=1;strokeColor=#22D234;strokeWidth=3;align=center;verticalAlign=middle;fontFamily=Helvetica;fontSize=12;fontColor=default;labelBackgroundColor=none;fillColor=none;" vertex="1" parent="1">
          <mxGeometry x="1120" y="1020" width="140" height="60" as="geometry" />
        </mxCell>
        <mxCell id="lDjh93la92TDXTI0dgt4-110" value="" style="rounded=1;whiteSpace=wrap;html=1;strokeColor=#22D234;strokeWidth=3;align=center;verticalAlign=middle;fontFamily=Helvetica;fontSize=12;fontColor=default;labelBackgroundColor=none;fillColor=none;" vertex="1" parent="1">
          <mxGeometry x="1120" y="750" width="140" height="60" as="geometry" />
        </mxCell>
        <mxCell id="lDjh93la92TDXTI0dgt4-111" style="edgeStyle=orthogonalEdgeStyle;rounded=0;orthogonalLoop=1;jettySize=auto;html=1;entryX=0;entryY=0.5;entryDx=0;entryDy=0;fontFamily=Helvetica;fontSize=12;fontColor=default;labelBackgroundColor=none;strokeColor=#B3B3B3;strokeWidth=5;exitX=1;exitY=0.5;exitDx=0;exitDy=0;" edge="1" parent="1" source="lDjh93la92TDXTI0dgt4-112" target="lDjh93la92TDXTI0dgt4-113">
          <mxGeometry relative="1" as="geometry">
            <mxPoint x="800" y="1020" as="sourcePoint" />
            <mxPoint x="1030.03" y="920" as="targetPoint" />
            <Array as="points">
              <mxPoint x="680" y="1030" />
              <mxPoint x="680" y="850" />
            </Array>
          </mxGeometry>
        </mxCell>
        <mxCell id="lDjh93la92TDXTI0dgt4-112" value="" style="rounded=1;whiteSpace=wrap;html=1;strokeColor=#22D234;strokeWidth=3;align=center;verticalAlign=middle;fontFamily=Helvetica;fontSize=12;fontColor=default;labelBackgroundColor=none;fillColor=none;" vertex="1" parent="1">
          <mxGeometry x="430" y="1020" width="140" height="20" as="geometry" />
        </mxCell>
        <mxCell id="lDjh93la92TDXTI0dgt4-113" value="" style="rounded=1;whiteSpace=wrap;html=1;strokeColor=#22D234;strokeWidth=3;align=center;verticalAlign=middle;fontFamily=Helvetica;fontSize=12;fontColor=default;labelBackgroundColor=none;fillColor=none;" vertex="1" parent="1">
          <mxGeometry x="770" y="840" width="70" height="20" as="geometry" />
        </mxCell>
      </root>
    </mxGraphModel>
  </diagram>
</mxfile>
